<svg xmlns="http://www.w3.org/2000/svg" width="113" height="40" viewBox="0 0 113 40">
	<g fill="#000" fill-rule="evenodd">
		<path d="M41.793 5.717c-.716-1.652-2.266-3.024-4.462-3.479-4.33-.897-7.996 2.148-8.984 4.2-.867 1.797-.398 3.17-.193 5.266.183 1.865-.199 5.333-1.012 6.92-.813 1.587-2.19 3.129-3.3 4.167-.367.367-.73.694-1.083.994-1.129-1.436-1.91-2.773-2.453-3.96a14.28 14.28 0 0 1-.885-2.502c-.293-1.19-.38-1.97-.503-3.164-.174-1.685-.083-3.599.126-5.36.12-1.014.291-1.986.487-2.843.089-.384.22-.785.352-1.187.195-.472.34-.98.41-1.54l.013-.115v-.508a2.31 2.31 0 0 0-.038-.275C20.03 1.097 19.018.204 17.541.026c-2.251-.27-5.345 1.577-6.198 3.492-.817 1.831-.595 2.994-.837 4.845-.162 1.258-.925 4.297-3.518 7.22-1.886 2.127-4.727 3.235-6.16 5.684-1.087 1.854-1.336 5.59.693 6.85 3.548 2.203 8.33-1.187 7.782-6.33-.18-1.808.04-5.452 1.789-8.398 1.014-1.765 2.823-3.3 2.823-3.3 1.17 1.56 2.062 3.543 2.395 5.124.248 1.186.583 2.4.722 3.59.424 3.516-.23 8.229-.896 11.09-.06.394-.611 1.884-.568 2.963.057 2.505 1.102 4.725 3.485 6.166.407.246.827.44 1.253.586 3.824 1.315 8.218-1.234 9.35-5.042l.016-.134a6.688 6.688 0 0 0 .071-3.43c-.897-4.59-.774-8.17.383-10.843 1.156-2.672 3.843-5.241 8.013-7.693 1.823-1.062 3.83-2.539 4.031-4.642v-.698a4.628 4.628 0 0 0-.377-1.41M64.317 28.509c-.457.328-1.004.491-1.645.491-.479 0-.934-.079-1.367-.234-.432-.156-.821-.498-1.164-1.024l-6.604-9.935a3.312 3.312 0 0 0-.246-.298c-.046-.043-.082-.065-.11-.065-.062 0-.128.033-.202.096-.077.064-.114.175-.114.332v10.956H50V15.761c0-.64.212-1.137.638-1.493.424-.355 1.011-.533 1.758-.533.701 0 1.238.114 1.61.342.375.227.663.504.874.83l6.648 10a.94.94 0 0 1 .147.234c.036.085.107.128.212.128.119 0 .191-.046.213-.139a.99.99 0 0 0 .033-.223V13.904H65V26.89c0 .754-.228 1.295-.683 1.62zM73.093 18.02c.396.013.799.058 1.21.13.41.076.808.192 1.19.346.383.157.728.37 1.04.64.326.284.586.619.775 1.006.192.384.338.773.436 1.165a6.8 6.8 0 0 1 .191 1.157c.03.38.042.712.042.995 0 1.15-.137 2.076-.414 2.772-.276.696-.619 1.234-1.03 1.613-.298.269-.64.485-1.03.638-.39.157-.792.27-1.21.346a9.737 9.737 0 0 1-1.221.142c-.397.02-.758.03-1.083.03-.34 0-.708-.01-1.106-.03-.396-.02-.8-.067-1.21-.142a6.003 6.003 0 0 1-1.19-.346 3.668 3.668 0 0 1-1.04-.638 3.314 3.314 0 0 1-.795-1.015 5.022 5.022 0 0 1-.425-1.168 7.619 7.619 0 0 1-.18-1.156A13.094 13.094 0 0 1 66 23.54c0-.297.014-.642.042-1.034a6.9 6.9 0 0 1 .191-1.19c.098-.397.244-.79.435-1.174.192-.387.45-.722.776-1.006a3.74 3.74 0 0 1 1.04-.64c.382-.154.78-.27 1.19-.346.41-.072.813-.117 1.21-.13a33.187 33.187 0 0 1 2.21 0zm-4.43 6.921c.065.5.275.946.628 1.34.37.393.797.639 1.286.74.488.101.958.154 1.412.154.466 0 .937-.053 1.412-.154.474-.101.895-.347 1.263-.74.37-.394.585-.833.648-1.318.064-.49.096-.968.096-1.443v-.65a4.55 4.55 0 0 0-.064-.75 3.762 3.762 0 0 0-.211-.761 2.06 2.06 0 0 0-.448-.68 2.35 2.35 0 0 0-.605-.457 3.267 3.267 0 0 0-.679-.265 3.82 3.82 0 0 0-.712-.11 12.732 12.732 0 0 0-1.37 0 4.04 4.04 0 0 0-.732.11 3.74 3.74 0 0 0-.712.265 1.976 1.976 0 0 0-.606.457c-.169.19-.304.413-.403.67a3.95 3.95 0 0 0-.211.782 5.973 5.973 0 0 0-.075.76c-.009.243-.01.454-.01.629 0 .447.032.92.094 1.421zM89.912 27.778c-.06.272-.15.486-.267.645a1.26 1.26 0 0 1-.772.493 4.775 4.775 0 0 1-.857.084h-4.663c-.3 0-.623-.024-.972-.075a3.557 3.557 0 0 1-2.009-.985c-.304-.293-.568-.69-.79-1.188-.151-.33-.285-.776-.403-1.34-.12-.565-.179-1.318-.179-2.261 0-.6.052-1.247.157-1.938a4.22 4.22 0 0 1 .757-1.876c.283-.4.607-.714.972-.942.363-.23.729-.396 1.092-.504a5.225 5.225 0 0 1 1.05-.204c.335-.029.622-.043.86-.043h3.503V14H90v13.01c0 .24-.029.499-.088.768zM84.346 19.5c-.36 0-.76.057-1.2.172-.438.113-.81.394-1.106.836-.142.2-.267.5-.377.9-.11.4-.163.984-.163 1.755 0 .887.043 1.508.128 1.866.086.356.153.584.2.684.142.288.314.515.517.686.205.17.419.301.649.387.226.083.458.142.694.17.234.028.454.044.658.044h2.212c.062 0 .175-.008.342-.023a.63.63 0 0 0 .387-.15c.11-.086.174-.217.188-.396.016-.178.025-.31.025-.398V19.5h-3.154zM95.305 29c-.289 0-.589-.009-.903-.03a3.778 3.778 0 0 1-.927-.177 3.693 3.693 0 0 1-.882-.422 2.923 2.923 0 0 1-.776-.755 3.957 3.957 0 0 1-.689-1.84A17.83 17.83 0 0 1 91 23.624c0-.51.01-.99.03-1.438a6.43 6.43 0 0 1 .175-1.24c.092-.379.23-.727.407-1.046.18-.315.43-.606.743-.866a3.491 3.491 0 0 1 1.046-.6 6.273 6.273 0 0 1 1.15-.301c.388-.061.761-.099 1.121-.113.356-.014.673-.021.947-.021.674 0 1.338.04 1.991.113a4.406 4.406 0 0 1 1.774.589c.332.206.601.44.808.7.208.262.375.547.497.856.12.31.205.633.246.97.044.336.065.678.065 1.02 0 .275-.028.561-.086.856-.058.296-.208.56-.451.794a1.3 1.3 0 0 1-.57.33 2.539 2.539 0 0 1-.659.083h-6.628c0 .235.013.504.04.81.03.302.066.54.108.704.087.29.209.523.367.694.159.175.344.306.56.395.216.091.442.15.677.177.239.028.471.043.702.043h5.573V29h-6.328zm3.532-6.558c.242 0 .398-.069.462-.204a.992.992 0 0 0 .097-.429c0-.34-.076-.634-.227-.878a1.971 1.971 0 0 0-.505-.572 2.192 2.192 0 0 0-1.045-.418 8.652 8.652 0 0 0-1.109-.073c-.172 0-.359.005-.56.01-.2.008-.409.03-.624.072a2.44 2.44 0 0 0-.634.215 2.11 2.11 0 0 0-.57.417c-.26.273-.406.564-.443.87-.035.306-.06.634-.073.99h5.23zM103.147 27.134h6.261c.126 0 .264-.02.419-.053a.703.703 0 0 0 .4-.259.595.595 0 0 0 .188-.364c.014-.13.02-.238.02-.322 0-.151-.017-.297-.051-.435a.805.805 0 0 0-.261-.395.636.636 0 0 0-.17-.114 4.517 4.517 0 0 0-.326-.135 7.962 7.962 0 0 0-.577-.186c-.239-.069-.554-.16-.944-.27l-2.143-.58c-.589-.155-1.088-.336-1.493-.55-.406-.216-.721-.475-.946-.779a2.37 2.37 0 0 1-.43-.956 5.011 5.011 0 0 1-.094-.913c0-.277.031-.58.094-.914.064-.33.206-.649.43-.953.169-.22.358-.398.567-.53.21-.132.43-.229.663-.292.232-.061.469-.099.714-.113.244-.014.488-.021.724-.021h6.283v1.868h-5.904a4.9 4.9 0 0 0-.43.02.836.836 0 0 0-.43.187c-.156.112-.247.234-.275.365-.027.13-.04.273-.04.425 0 .152.016.297.05.436.036.138.139.276.307.415.082.07.188.132.314.187.125.054.255.107.388.155.134.05.263.093.39.136.125.04.222.069.293.081l2.396.665a20.44 20.44 0 0 1 1.68.551c.448.174.812.404 1.093.695.307.318.5.655.578 1.017a4.798 4.798 0 0 1 .094 1.505c-.013.2-.053.411-.114.633-.065.22-.159.436-.285.643a2.01 2.01 0 0 1-.525.56c-.28.208-.578.336-.893.384a5.806 5.806 0 0 1-.892.072h-7.123v-1.866">
		</path>
	</g>
</svg>
